<?xml version="1.0" encoding="UTF-8" standalone="no"?>
<svg
   id="Capa_1"
   data-name="Capa 1"
   viewBox="0 0 609.82983 608.7612"
   version="1.1"
   sodipodi:docname="stair-180deg.svg"
   width="609.82983"
   height="608.76123"
   inkscape:version="1.3.2 (091e20e, 2023-11-25, custom)"
   xmlns:inkscape="http://www.inkscape.org/namespaces/inkscape"
   xmlns:sodipodi="http://sodipodi.sourceforge.net/DTD/sodipodi-0.dtd"
   xmlns="http://www.w3.org/2000/svg"
   xmlns:svg="http://www.w3.org/2000/svg">
  <sodipodi:namedview
     id="namedview6"
     pagecolor="#505050"
     bordercolor="#eeeeee"
     borderopacity="1"
     inkscape:showpageshadow="0"
     inkscape:pageopacity="0"
     inkscape:pagecheckerboard="0"
     inkscape:deskcolor="#505050"
     inkscape:zoom="256"
     inkscape:cx="0.31640625"
     inkscape:cy="1.9355469"
     inkscape:window-width="1920"
     inkscape:window-height="1017"
     inkscape:window-x="-8"
     inkscape:window-y="-8"
     inkscape:window-maximized="1"
     inkscape:current-layer="Capa_1" />
  <defs
     id="defs1">
    <style
       id="style1">
      .cls-1 {
        fill: #eaeaea;
        stroke-width: 0px;
      }
    </style>
  </defs>
  <polygon
     class="cls-1"
     points="456.51,608.82 456.51,608.8 608.68,608.8 608.68,456.64 608.69,456.64 608.69,608.82 "
     id="polygon1"
     transform="translate(0.05,-0.08)" />
  <rect
     class="cls-1"
     x="608.72998"
     y="304.37003"
     width="0.0099999998"
     height="152.19"
     id="rect1" />
  <rect
     class="cls-1"
     x="608.72998"
     y="152.17999"
     width="0.0099999998"
     height="152.19"
     id="rect2" />
  <rect
     class="cls-1"
     x="608.72998"
     y="0"
     width="0.0099999998"
     height="152.19"
     id="rect3" />
  <rect
     class="cls-1"
     x="304.37"
     y="608.71997"
     width="152.19"
     height="0.02"
     id="rect4" />
  <rect
     class="cls-1"
     x="152.18001"
     y="608.71997"
     width="152.19"
     height="0.02"
     id="rect5" />
  <path
     class="cls-1"
     d="M 0.00285283,608.72848 V -0.00153389 H 608.73285 V 130.76847 c 0,11.82 -9.58,21.4 -21.4,21.4 H 456.54286 v 130.79 c 0,11.82 -9.58,21.4 -21.4,21.4 h -130.79 v 130.79 c 0,11.82 -9.58,21.4 -21.4,21.4 h -130.79 v 130.78001 c 0,11.82 -9.58,21.4 -21.4,21.4 H -0.00714717 Z"
     id="path5" />
  <rect
     class="cls-1"
     x="0"
     y="608.71997"
     width="152.17999"
     height="0.02"
     id="rect6" />
</svg>
